# xmcd
#
# Track frame offsets: 
#        150
#        20122
#        39037
#        57974
#        82619
#        98371
#        114716
#        130348
#        156453
#        176741
#        201060
#        220708
#        239563
#        263749
#        281060
#        302114
#
# Disc length: 4309 seconds
#
# Revision: 0
# Processed by: cddbd v1.5.2PL0 Copyright (c) Steve Scherf et al.
# Submitted via: ExactAudioCopyFreeDBPlugin 1.0
#
DISCID=d910d310
DTITLE=Jay-Z - Pride Of Marcy [CD1]
DYEAR=2009
DGENRE=Rap
TTITLE0=Hawaiian Sophie Feat. The Jaz
TTITLE1=It's That Smple Feat. The Jaz
TTITLE2=The Originators Feat. The Jaz
TTITLE3=Good Thang (Hip Hop Remix) Feat. Glenn Jones
TTITLE4=Can I Get Open Feat. Original Flavor
TTITLE5=Many Styles Feat. Original Flavor
TTITLE6=Can I Get Open (Remix) Feat. Original Flavor
TTITLE7=Show And Prove Feat. Big Scoob, Sauce Money, Shyheim, Big Dadd
TTITLE7=y Kane and Ol' Dirty Bastard
TTITLE8=In My Lifetime (Original Ski Street Version)
TTITLE9=Da Graveyard Feat. Big L, Lord Finesse, Microphone Nut, Party 
TTITLE9=Arty and Grand Daddy I.U.
TTITLE10=Time To Build Feat. Mic Geronimo, Ja Rule and DMX
TTITLE11=Can't Get With That (DJ Clark Kent Version)
TTITLE12=So Many Ways (Extended Mix) Feat. The Braxtons
TTITLE13=No Love Lost Feat. Shaq and Lord Tariq
TTITLE14=Things We Do For Love (Eddie F's Paradise Mix)
TTITLE15=Can't Knock The Hustle (Fools Paradise Remix) Feat. Nelissa M
TTITLE15=organ
EXTD=
EXTT0=
EXTT1=
EXTT2=
EXTT3=
EXTT4=
EXTT5=
EXTT6=
EXTT7=
EXTT8=
EXTT9=
EXTT10=
EXTT11=
EXTT12=
EXTT13=
EXTT14=
EXTT15=
PLAYORDER=
